<svg width="21" height="11" viewBox="0 0 21 11" fill="none" xmlns="http://www.w3.org/2000/svg">
<path d="M19.4912 0.087653C19.2538 0.0932656 19.0283 0.192461 18.8637 0.36363L10.5 8.7273L2.13633 0.36363C2.05246 0.277415 1.95216 0.208884 1.84135 0.162087C1.73055 0.11529 1.61149 0.0911756 1.49121 0.0911686C1.31217 0.0912156 1.13721 0.144656 0.988706 0.244659C0.840197 0.344661 0.724886 0.486681 0.657515 0.652561C0.590143 0.818442 0.573772 1.00065 0.610496 1.17588C0.64722 1.35111 0.735368 1.51141 0.863673 1.63629L9.86367 10.6363C10.0325 10.805 10.2613 10.8998 10.5 10.8998C10.7387 10.8998 10.9675 10.805 11.1363 10.6363L20.1363 1.63629C20.267 1.5106 20.3567 1.34837 20.3937 1.17084C20.4306 0.993306 20.4131 0.808759 20.3433 0.641371C20.2736 0.473982 20.1549 0.331558 20.0029 0.232754C19.8508 0.13395 19.6725 0.083375 19.4912 0.087653Z" fill="white"/>
</svg>
