<?xml version="1.0" encoding="UTF-8" standalone="no"?>
<!DOCTYPE svg PUBLIC "-//W3C//DTD SVG 1.1//EN" "http://www.w3.org/Graphics/SVG/1.1/DTD/svg11.dtd">
<svg xmlns="http://www.w3.org/2000/svg" version="1.1" viewBox="0.00 0.00 269.00 40.00">
<path fill="#6bd557" d="
  M 17.18 19.75
  C 14.56 25.57 16.05 31.00 17.32 36.54
  Q 17.55 37.56 16.54 37.27
  C 0.85 32.81 0.86 7.27 16.46 2.79
  Q 16.97 2.65 17.18 3.13
  Q 20.87 11.54 17.18 19.75
  Z"
/>
<path fill="#6bd557" d="
  M 19.02 20.86
  Q 23.06 12.06 19.37 3.26
  A 0.43 0.42 -5.0 0 1 19.86 2.68
  C 36.02 6.49 36.12 32.79 20.23 37.31
  A 0.64 0.64 0.0 0 1 19.43 36.83
  C 18.39 31.64 16.57 26.18 19.02 20.86
  Z"
/>
<rect fill="#444444" x="197.49" y="3.78" width="5.02" height="24.62" rx="0.40"/>
<path fill="#444444" d="
  M 59.52 23.50
  L 57.81 28.17
  A 0.33 0.33 0.0 0 1 57.50 28.38
  L 53.10 28.43
  A 0.33 0.33 0.0 0 1 52.79 27.98
  L 61.92 4.49
  A 0.33 0.33 0.0 0 1 62.22 4.28
  L 65.47 4.25
  A 0.33 0.33 0.0 0 1 65.78 4.46
  L 74.94 27.92
  A 0.33 0.33 0.0 0 1 74.63 28.37
  L 69.98 28.41
  A 0.33 0.33 0.0 0 1 69.67 28.20
  L 67.82 23.48
  A 0.33 0.33 0.0 0 0 67.51 23.27
  L 59.83 23.28
  A 0.33 0.33 0.0 0 0 59.52 23.50
  Z
  M 61.17 19.07
  A 0.16 0.16 0.0 0 0 61.31 19.28
  L 65.99 19.30
  Q 66.69 19.31 66.38 18.67
  Q 64.79 15.48 64.23 11.95
  Q 63.98 10.43 63.51 11.89
  L 61.17 19.07
  Z"
/>
<path fill="#444444" d="
  M 87.01 21.20
  C 87.31 20.11 87.21 18.92 87.56 17.90
  Q 89.97 11.04 92.39 4.52
  Q 92.48 4.26 92.76 4.26
  L 97.48 4.26
  A 0.21 0.20 -79.2 0 1 97.67 4.54
  L 88.29 27.90
  Q 88.10 28.36 87.60 28.37
  L 85.02 28.44
  A 0.74 0.74 0.0 0 1 84.32 27.98
  L 74.83 4.52
  A 0.17 0.16 -11.3 0 1 74.99 4.29
  L 80.45 4.26
  A 0.33 0.31 78.7 0 1 80.76 4.48
  L 86.81 21.21
  Q 86.92 21.53 87.01 21.20
  Z"
/>
<path fill="#444444" d="
  M 104.11 23.52
  L 102.36 28.13
  A 0.38 0.38 0.0 0 1 102.01 28.37
  L 97.76 28.41
  A 0.38 0.38 0.0 0 1 97.40 27.90
  L 106.51 4.49
  A 0.38 0.38 0.0 0 1 106.86 4.25
  L 110.03 4.27
  A 0.38 0.38 0.0 0 1 110.38 4.51
  L 119.50 27.87
  A 0.38 0.38 0.0 0 1 119.15 28.39
  L 114.60 28.43
  A 0.38 0.38 0.0 0 1 114.24 28.19
  L 112.40 23.51
  A 0.38 0.38 0.0 0 0 112.04 23.27
  L 104.46 23.28
  A 0.38 0.38 0.0 0 0 104.11 23.52
  Z
  M 107.88 11.31
  Q 107.52 15.15 105.76 18.60
  A 0.49 0.49 0.0 0 0 106.20 19.31
  L 110.49 19.28
  Q 111.00 19.28 110.84 18.79
  L 108.38 11.25
  Q 108.00 10.09 107.88 11.31
  Z"
/>
<path fill="#444444" d="
  M 146.63 9.29
  C 130.10 4.11 132.74 30.56 146.78 23.89
  Q 147.36 23.61 147.53 24.24
  L 148.30 27.19
  Q 148.46 27.79 147.88 28.03
  C 141.74 30.52 133.32 29.28 130.83 22.24
  C 126.54 10.13 135.61 1.76 147.55 5.01
  A 0.48 0.47 14.0 0 1 147.89 5.57
  L 147.16 8.98
  Q 147.07 9.43 146.63 9.29
  Z"
/>
<path fill="#444444" d="
  M 164.74 23.29
  L 157.02 23.27
  A 0.30 0.30 0.0 0 0 156.74 23.47
  L 155.00 28.18
  A 0.30 0.30 0.0 0 1 154.72 28.37
  L 150.27 28.41
  A 0.30 0.30 0.0 0 1 149.99 28.00
  L 159.15 4.46
  A 0.30 0.30 0.0 0 1 159.43 4.27
  L 162.71 4.27
  A 0.30 0.30 0.0 0 1 162.98 4.46
  L 172.17 27.98
  A 0.30 0.30 0.0 0 1 171.89 28.39
  L 167.15 28.40
  A 0.30 0.30 0.0 0 1 166.88 28.21
  L 165.01 23.48
  A 0.30 0.30 0.0 0 0 164.74 23.29
  Z
  M 158.41 19.08
  A 0.17 0.16 -80.7 0 0 158.56 19.30
  L 163.14 19.30
  Q 163.57 19.30 163.45 18.89
  L 161.16 11.41
  A 0.19 0.19 0.0 0 0 160.79 11.41
  L 158.41 19.08
  Z"
/>
<path fill="#444444" d="
  M 180.84 20.98
  L 180.98 27.81
  Q 180.99 28.36 180.44 28.37
  L 176.24 28.41
  A 0.44 0.43 -0.0 0 1 175.80 27.98
  L 175.81 5.24
  Q 175.81 4.73 176.31 4.64
  C 182.07 3.67 194.75 2.85 193.98 12.67
  C 193.41 19.89 187.01 20.35 181.33 20.46
  Q 180.83 20.47 180.84 20.98
  Z
  M 180.87 9.13
  L 180.89 15.39
  A 0.59 0.59 0.0 0 0 181.48 15.98
  L 184.36 15.97
  A 4.25 3.48 -0.2 0 0 188.60 12.48
  L 188.60 12.00
  A 4.25 3.48 -0.2 0 0 184.34 8.53
  L 181.46 8.54
  A 0.59 0.59 0.0 0 0 180.87 9.13
  Z"
/>
<path fill="#444444" d="
  M 238.84 23.28
  L 231.12 23.28
  A 0.30 0.30 0.0 0 0 230.84 23.48
  L 229.09 28.18
  A 0.30 0.30 0.0 0 1 228.81 28.38
  L 224.38 28.38
  A 0.30 0.30 0.0 0 1 224.10 27.97
  L 233.25 4.44
  A 0.30 0.30 0.0 0 1 233.53 4.25
  L 236.81 4.27
  A 0.30 0.30 0.0 0 1 237.08 4.46
  L 246.27 27.98
  A 0.30 0.30 0.0 0 1 245.99 28.39
  L 241.24 28.39
  A 0.30 0.30 0.0 0 1 240.97 28.20
  L 239.11 23.47
  A 0.30 0.30 0.0 0 0 238.84 23.28
  Z
  M 237.65 19.10
  L 235.20 11.29
  A 0.15 0.15 0.0 0 0 234.91 11.29
  L 232.63 18.81
  Q 232.48 19.33 233.01 19.32
  L 237.53 19.26
  A 0.13 0.12 -8.6 0 0 237.65 19.10
  Z"
/>
<path fill="#444444" d="
  M 255.20 23.75
  L 263.86 23.75
  A 0.37 0.37 0.0 0 1 264.23 24.12
  L 264.23 27.88
  A 0.37 0.37 0.0 0 1 263.86 28.25
  L 250.16 28.25
  A 0.37 0.37 0.0 0 1 249.79 27.88
  L 249.78 4.65
  A 0.37 0.37 0.0 0 1 250.15 4.28
  L 254.49 4.26
  A 0.37 0.37 0.0 0 1 254.86 4.63
  L 254.83 23.38
  A 0.37 0.37 0.0 0 0 255.20 23.75
  Z"
/>
<path fill="#444444" d="
  M 216.70 9.20
  L 216.71 28.02
  A 0.36 0.36 0.0 0 1 216.35 28.38
  L 212.02 28.41
  A 0.36 0.36 0.0 0 1 211.66 28.05
  L 211.67 9.19
  A 0.36 0.36 0.0 0 0 211.31 8.83
  L 205.64 8.91
  A 0.36 0.36 0.0 0 1 205.28 8.55
  L 205.26 4.84
  A 0.36 0.36 0.0 0 1 205.62 4.48
  L 222.74 4.48
  A 0.36 0.36 0.0 0 1 223.10 4.84
  L 223.10 8.54
  A 0.36 0.36 0.0 0 1 222.74 8.90
  L 217.06 8.84
  A 0.36 0.36 0.0 0 0 216.70 9.20
  Z"
/>
<path fill="#444444" d="
  M 40.21 30.22
  C 42.71 31.57 44.68 29.90 44.64 27.24
  Q 44.49 16.18 44.51 5.42
  Q 44.51 4.96 44.97 4.96
  L 49.19 4.95
  Q 49.55 4.95 49.55 5.31
  Q 49.51 15.30 49.56 25.52
  C 49.60 32.86 47.09 37.07 38.92 34.25
  Q 38.73 34.18 38.78 33.99
  L 39.84 30.38
  Q 39.93 30.07 40.21 30.22
  Z"
/>
</svg>
