<svg width="53" height="51" viewBox="0 0 53 51" fill="none" xmlns="http://www.w3.org/2000/svg">
<g id="Group 6">
<circle id="Ellipse 5" cx="8.14333" cy="42.6721" r="8.14353" transform="rotate(-180 8.14333 42.6721)" fill="#FF7A00"/>
<circle id="Ellipse 8" cx="43.9751" cy="25.4078" r="8.14353" transform="rotate(-180 43.9751 25.4078)" fill="#FF7A00"/>
<circle id="Ellipse 11" cx="8.14333" cy="8.14351" r="8.14353" transform="rotate(-180 8.14333 8.14351)" fill="#FF7A00"/>
<g id="Group 2">
<circle id="Ellipse 3" cx="43.6493" cy="42.6721" r="8.14353" transform="rotate(-180 43.6493 42.6721)" fill="#FF7A00"/>
<circle id="Ellipse 7" cx="26.3848" cy="25.4078" r="8.14353" transform="rotate(-180 26.3848 25.4078)" fill="#FF7A00"/>
<circle id="Ellipse 9" cx="43.6492" cy="8.14351" r="8.14353" transform="rotate(-180 43.6492 8.14351)" fill="#FF7A00"/>
<path id="Rectangle 1" d="M35.5057 42.6722C35.0171 37.7861 32.4112 34.04 26.7107 33.5514L34.5285 25.7336C34.8542 31.1084 39.0889 34.5286 43.6493 34.5286L35.5057 42.6722Z" fill="#FF7A00"/>
<path id="Rectangle 2" d="M43.4659 16.3746C38.5703 16.7563 35.1416 19.3936 34.5284 25.082L27.0364 17.2642C32.417 17.0561 35.4027 12.6142 35.5024 8.05492L43.4659 16.3746Z" fill="#FF7A00"/>
</g>
<g id="Group 1">
<circle id="Ellipse 4" cx="25.7335" cy="42.6721" r="8.14353" transform="rotate(-180 25.7335 42.6721)" fill="#FF7A00"/>
<circle id="Ellipse 6" cx="8.46914" cy="25.4078" r="8.14353" transform="rotate(-180 8.46914 25.4078)" fill="#FF7A00"/>
<circle id="Ellipse 10" cx="25.7334" cy="8.14351" r="8.14353" transform="rotate(-180 25.7334 8.14351)" fill="#FF7A00"/>
<path id="Rectangle 3" d="M17.5899 42.3463C17.1013 37.4602 14.8211 34.0399 9.12062 33.5513L16.6127 25.7335C16.9384 31.1083 21.4988 34.5286 26.0592 34.5286L17.5899 42.3463Z" fill="#FF7A00"/>
<path id="Rectangle 4" d="M25.7334 16.287C20.8378 16.6687 17.2258 19.3936 16.6126 25.0821L8.63198 17.2643C14.0126 17.0562 17.4901 12.8657 17.5899 8.30639L25.7334 16.287Z" fill="#FF7A00"/>
</g>
</g>
</svg>
