<svg width="300" height="82" viewBox="0 0 300 82" fill="none" xmlns="http://www.w3.org/2000/svg">
<path d="M202.321 14.6002C204.215 14.6002 205.751 13.0646 205.751 11.1702C205.751 9.2759 204.215 7.74023 202.321 7.74023C200.426 7.74023 198.891 9.2759 198.891 11.1702C198.891 13.0646 200.426 14.6002 202.321 14.6002Z" fill="#E85D29"/>
<path d="M253.299 38.66C241.629 47.75 230.019 34.89 235.549 23.57C238.899 16.73 247.959 14.83 253.519 20.43C253.557 20.4674 253.605 20.4928 253.657 20.5031C253.709 20.5133 253.763 20.508 253.812 20.4877C253.861 20.4674 253.903 20.4331 253.933 20.389C253.963 20.345 253.979 20.2931 253.979 20.24V8.49998C253.979 8.36207 254.034 8.2298 254.131 8.13228C254.229 8.03477 254.361 7.97998 254.499 7.97998L258.739 7.98998C258.874 7.98998 259.004 8.04266 259.1 8.13643C259.195 8.2302 259.249 8.35737 259.249 8.48998V40.25C259.249 40.7433 258.999 40.9933 258.499 41H254.799C254.332 41 254.076 40.7666 254.029 40.3L253.889 38.91C253.842 38.47 253.646 38.3866 253.299 38.66ZM246.491 36.3853C248.229 36.449 249.924 35.7679 251.202 34.4917C252.48 33.2156 253.236 31.4489 253.305 29.5804C253.339 28.6552 253.203 27.7328 252.905 26.8659C252.606 25.9991 252.152 25.2047 251.567 24.5282C250.983 23.8516 250.279 23.3062 249.496 22.923C248.714 22.5397 247.868 22.3262 247.007 22.2947C245.269 22.2309 243.574 22.9121 242.296 24.1882C241.018 25.4644 240.262 27.2311 240.194 29.0996C240.16 30.0248 240.296 30.9472 240.594 31.814C240.892 32.6809 241.346 33.4752 241.931 34.1518C242.516 34.8283 243.219 35.3738 244.002 35.757C244.784 36.1402 245.63 36.3537 246.491 36.3853Z" fill="#E85D29"/>
<path d="M267 14.5798C268.883 14.5798 270.41 13.0531 270.41 11.1698C270.41 9.28647 268.883 7.75977 267 7.75977C265.117 7.75977 263.59 9.28647 263.59 11.1698C263.59 13.0531 265.117 14.5798 267 14.5798Z" fill="#33348C"/>
<path d="M60.6701 22.88H57.8301C57.1234 22.88 56.7668 22.53 56.7601 21.83L56.7501 18.74C56.7434 18.0533 57.0801 17.7133 57.7601 17.72L60.7401 17.74C60.8674 17.74 60.9895 17.6894 61.0795 17.5994C61.1695 17.5094 61.2201 17.3873 61.2201 17.26L61.1501 12.51C61.1434 11.77 61.5068 11.4 62.2401 11.4L65.5401 11.38C66.3134 11.3733 66.7034 11.76 66.7101 12.54L66.7301 16.87C66.7301 16.9864 66.7532 17.1016 66.798 17.2091C66.8429 17.3165 66.9086 17.4139 66.9914 17.4958C67.0741 17.5776 67.1723 17.6422 67.2803 17.6859C67.3882 17.7295 67.5037 17.7513 67.6201 17.75H72.0001C72.6734 17.75 73.0068 18.0833 73.0001 18.75L72.9701 21.76C72.9634 22.4133 72.6368 22.7466 71.9901 22.76L67.2901 22.87C66.9101 22.8833 66.7168 23.08 66.7101 23.46L66.6401 34.16C66.6374 34.6339 66.8218 35.0898 67.1531 35.4287C67.4845 35.7676 67.9362 35.9621 68.4101 35.97L71.8701 36.04C72.5968 36.0533 73.0534 36.4133 73.2401 37.12L74.0001 40.01C74.1801 40.69 73.9201 41.0133 73.2201 40.98C67.0501 40.71 61.5001 42.3 61.5001 33.5C61.5001 30.14 61.4134 26.78 61.2401 23.42C61.2201 23.06 61.0301 22.88 60.6701 22.88Z" fill="#E85D29"/>
<path d="M128.931 22.8699L125.971 22.7999C125.238 22.7865 124.864 22.4132 124.851 21.6799L124.811 18.9999C124.798 18.1932 125.194 17.7799 126.001 17.7599L128.681 17.6999C128.761 17.6986 128.84 17.6813 128.914 17.6489C128.987 17.6166 129.054 17.5698 129.109 17.5113C129.165 17.4528 129.209 17.3837 129.238 17.308C129.268 17.2322 129.282 17.1513 129.281 17.0699L129.231 12.8099C129.224 11.9899 129.628 11.5532 130.441 11.4999L133.681 11.2999C134.481 11.2465 134.888 11.6232 134.901 12.4299L134.961 17.2099C134.962 17.3014 134.982 17.3917 135.019 17.4756C135.056 17.5595 135.109 17.6353 135.176 17.6985C135.243 17.7618 135.322 17.8113 135.409 17.8442C135.496 17.877 135.588 17.8926 135.681 17.8899L140.241 17.7499C140.372 17.7458 140.504 17.7685 140.626 17.8167C140.749 17.8649 140.86 17.9375 140.954 18.0301C141.047 18.1227 141.121 18.2334 141.17 18.3554C141.22 18.4775 141.244 18.6083 141.241 18.7399L141.171 21.6199C141.158 22.3732 140.771 22.7499 140.011 22.7499L135.681 22.7599C135.465 22.7625 135.259 22.849 135.108 23.0006C134.956 23.1523 134.871 23.3568 134.871 23.5699L134.891 34.2999C134.891 34.7456 135.065 35.1735 135.375 35.4915C135.686 35.8094 136.108 35.992 136.551 35.9999L140.061 36.0699C140.728 36.0832 141.151 36.4099 141.331 37.0499L142.141 39.9099C142.301 40.4832 142.084 40.7832 141.491 40.8099C137.151 41.0299 129.871 41.7999 129.841 35.7499C129.814 31.6232 129.691 27.5032 129.471 23.3899C129.451 23.0499 129.271 22.8766 128.931 22.8699Z" fill="#E85D29"/>
<path d="M18.0803 36.17L15.0603 36.01C14.918 36.0019 14.7774 36.0447 14.6638 36.1309C14.5502 36.217 14.471 36.3407 14.4403 36.48L13.5503 40.54C13.521 40.6723 13.4476 40.7908 13.3423 40.8762C13.237 40.9615 13.1059 41.0087 12.9703 41.01L9.20032 41.03C9.10991 41.0295 9.02078 41.0085 8.93961 40.9687C8.85843 40.9289 8.78729 40.8713 8.73152 40.8001C8.67575 40.729 8.63678 40.6461 8.61752 40.5578C8.59826 40.4694 8.59922 40.3779 8.62032 40.29L9.39032 36.88C9.40968 36.7927 9.40932 36.7023 9.38926 36.6152C9.36919 36.5282 9.32993 36.4467 9.27435 36.3767C9.21877 36.3067 9.14826 36.2501 9.06798 36.2109C8.9877 36.1716 8.89967 36.1508 8.81032 36.15L6.59032 36.14C6.51068 36.14 6.43183 36.1241 6.35837 36.0934C6.28492 36.0626 6.21833 36.0175 6.16248 35.9607C6.10663 35.9039 6.06265 35.8366 6.03309 35.7627C6.00353 35.6887 5.98899 35.6096 5.99032 35.53L6.04032 31.73C6.04031 31.6503 6.05615 31.5715 6.08693 31.498C6.1177 31.4246 6.1628 31.358 6.21957 31.3021C6.27635 31.2463 6.34368 31.2023 6.41764 31.1727C6.49159 31.1432 6.57069 31.1286 6.65032 31.13L10.0703 31.16C10.2045 31.1592 10.3346 31.1135 10.4397 31.0301C10.5449 30.9467 10.619 30.8305 10.6503 30.7L12.0803 25.01C12.1012 24.9229 12.1024 24.8322 12.0837 24.7446C12.065 24.657 12.0269 24.5747 11.9723 24.5037C11.9176 24.4327 11.8477 24.3749 11.7678 24.3344C11.6879 24.294 11.5999 24.272 11.5103 24.27L9.33032 24.25C9.25152 24.2487 9.17375 24.2319 9.10146 24.2005C9.02916 24.1691 8.96375 24.1238 8.90896 24.0672C8.85417 24.0105 8.81108 23.9437 8.78214 23.8704C8.75321 23.7971 8.73899 23.7188 8.74032 23.64L8.84032 20.09C8.84551 19.9343 8.91101 19.7868 9.02297 19.6786C9.13494 19.5704 9.28459 19.5099 9.44032 19.51L12.8903 19.5C13.0318 19.4996 13.1687 19.4492 13.2766 19.3577C13.3846 19.2662 13.4567 19.1395 13.4803 19L14.2703 14.24C14.2939 14.1004 14.3661 13.9737 14.474 13.8822C14.582 13.7907 14.7188 13.7404 14.8603 13.74L18.9303 13.76C19.0218 13.7601 19.1121 13.7812 19.1942 13.8216C19.2763 13.8619 19.348 13.9206 19.404 13.9929C19.46 14.0653 19.4986 14.1495 19.5171 14.2391C19.5355 14.3287 19.5332 14.4214 19.5103 14.51L18.3703 18.77C18.3456 18.8592 18.3419 18.953 18.3595 19.0439C18.3771 19.1348 18.4154 19.2204 18.4716 19.294C18.5278 19.3676 18.6002 19.4272 18.6833 19.4681C18.7663 19.5091 18.8577 19.5302 18.9503 19.53L21.9603 19.49C22.0973 19.4882 22.2295 19.4396 22.335 19.3523C22.4405 19.2649 22.5129 19.1442 22.5403 19.01L23.5603 14.18C23.5901 14.046 23.6649 13.9262 23.7722 13.8407C23.8796 13.7551 24.013 13.709 24.1503 13.71L28.1403 13.77C28.2307 13.7705 28.3199 13.7914 28.401 13.8312C28.4822 13.871 28.5533 13.9287 28.6091 13.9998C28.6649 14.071 28.7039 14.1538 28.7231 14.2422C28.7424 14.3305 28.7414 14.4221 28.7203 14.51L27.6403 18.78C27.6192 18.8679 27.6183 18.9594 27.6375 19.0478C27.6568 19.1361 27.6957 19.219 27.7515 19.2901C27.8073 19.3613 27.8784 19.4189 27.9596 19.4587C28.0408 19.4985 28.1299 19.5195 28.2203 19.52L30.1503 19.55C30.3077 19.5526 30.4578 19.617 30.5681 19.7292C30.6785 19.8414 30.7403 19.9926 30.7403 20.15L30.7503 23.66C30.7503 23.8191 30.6871 23.9717 30.5746 24.0842C30.4621 24.1968 30.3094 24.26 30.1503 24.26L26.9003 24.25C26.763 24.249 26.6296 24.2951 26.5222 24.3807C26.4149 24.4662 26.3401 24.586 26.3103 24.72L25.0103 30.47C24.9901 30.5606 24.9911 30.6546 25.0133 30.7448C25.0356 30.8349 25.0784 30.9186 25.1385 30.9894C25.1986 31.0601 25.2743 31.116 25.3597 31.1525C25.445 31.1891 25.5376 31.2053 25.6303 31.2L27.5103 31.08C27.5916 31.0759 27.6729 31.0884 27.7492 31.1167C27.8254 31.1451 27.8952 31.1886 27.9541 31.2447C28.013 31.3009 28.0599 31.3684 28.092 31.4432C28.124 31.518 28.1404 31.5986 28.1403 31.68L28.1103 35.42C28.1078 35.574 28.0462 35.7211 27.9383 35.8309C27.8303 35.9408 27.6842 36.0049 27.5303 36.01L24.1403 36.07C24.0005 36.0727 23.8661 36.1241 23.7602 36.2154C23.6543 36.3067 23.5836 36.4321 23.5603 36.57L22.8703 40.48C22.8474 40.6162 22.7782 40.7403 22.6743 40.8314C22.5705 40.9225 22.4384 40.975 22.3003 40.98L18.5003 41.1C18.4095 41.1033 18.3191 41.086 18.236 41.0493C18.1528 41.0127 18.0791 40.9576 18.0203 40.8882C17.9616 40.8189 17.9193 40.7371 17.8968 40.6491C17.8743 40.561 17.8721 40.469 17.8903 40.38L18.6303 36.9C18.6493 36.8151 18.6496 36.7272 18.6313 36.6422C18.6129 36.5573 18.5763 36.4773 18.524 36.4079C18.4717 36.3384 18.4049 36.2812 18.3283 36.2401C18.2517 36.1991 18.1671 36.1751 18.0803 36.17ZM21.2503 24.79C21.2636 24.7247 21.2623 24.6572 21.2464 24.5925C21.2305 24.5278 21.2004 24.4674 21.1583 24.4157C21.1162 24.3641 21.0631 24.3224 21.0029 24.2937C20.9428 24.265 20.877 24.2501 20.8103 24.25L17.5103 24.22C17.405 24.2179 17.3024 24.2527 17.2201 24.3185C17.1379 24.3843 17.0814 24.4768 17.0603 24.58L15.7603 30.7C15.7448 30.7677 15.7452 30.838 15.7614 30.9055C15.7776 30.9731 15.8092 31.0359 15.8538 31.0892C15.8983 31.1424 15.9546 31.1847 16.0182 31.2126C16.0818 31.2405 16.151 31.2533 16.2203 31.25L19.5003 31.12C19.6008 31.118 19.6977 31.0825 19.7756 31.0191C19.8536 30.9556 19.908 30.8679 19.9303 30.77L21.2503 24.79Z" fill="#E85D29"/>
<path d="M47.9908 32.24C45.3708 31.07 41.8508 31.37 39.6908 30.58C35.8908 29.2 33.6608 25.23 35.5408 21.38C38.4808 15.38 47.9908 16.74 52.9008 19.24C53.6008 19.6 53.7108 20.0933 53.2308 20.72L51.2908 23.24C50.7908 23.88 50.2075 23.9733 49.5408 23.52C47.2608 21.98 44.7508 21.49 42.0108 22.05C41.6751 22.1192 41.3635 22.2756 41.1075 22.5036C40.8514 22.7315 40.66 23.023 40.5525 23.3485C40.4451 23.674 40.4253 24.0221 40.4952 24.3577C40.5651 24.6933 40.7223 25.0045 40.9508 25.26C44.0208 28.66 52.1508 24.68 54.3708 31.6C54.9575 33.44 54.7708 35.3333 53.8108 37.28C50.3508 44.25 39.6808 42.55 34.8208 38.43C34.2542 37.95 34.1842 37.4067 34.6108 36.8L36.1108 34.64C36.5242 34.0467 37.0375 33.9367 37.6508 34.31C40.8208 36.23 46.6208 38.11 48.7708 35.05C48.9306 34.8216 49.0379 34.5608 49.085 34.2861C49.1321 34.0114 49.1178 33.7297 49.0433 33.4611C48.9688 33.1926 48.8357 32.9438 48.6538 32.7327C48.4718 32.5216 48.2454 32.3534 47.9908 32.24Z" fill="#E85D29"/>
<path d="M176.8 38.7801L176.79 49.9501C176.79 50.4101 176.557 50.6401 176.09 50.6401H172.26C171.674 50.6401 171.38 50.3467 171.38 49.7601L171.32 18.2801C171.32 18.228 171.331 18.1765 171.351 18.1285C171.371 18.0805 171.401 18.037 171.438 18.0007C171.475 17.9643 171.52 17.9358 171.568 17.9168C171.616 17.8978 171.668 17.8887 171.72 17.8901L176.04 17.9801C176.387 17.9867 176.637 18.1467 176.79 18.4601C176.917 18.7201 176.957 18.9367 176.91 19.1101C176.597 20.3567 176.92 20.5534 177.88 19.7001C181.107 16.8334 184.957 16.2867 189.43 18.0601C197.42 21.2201 198.63 32.6101 192.66 38.4501C188.16 42.8501 182.97 42.9101 177.09 38.6301C176.897 38.4901 176.8 38.5401 176.8 38.7801ZM190.9 29.4301C190.9 27.6425 190.19 25.9282 188.926 24.6642C187.662 23.4002 185.948 22.6901 184.16 22.6901C182.373 22.6901 180.658 23.4002 179.394 24.6642C178.13 25.9282 177.42 27.6425 177.42 29.4301C177.42 30.3152 177.595 31.1916 177.933 32.0094C178.272 32.8271 178.769 33.5701 179.394 34.196C180.02 34.8218 180.763 35.3183 181.581 35.657C182.399 35.9957 183.275 36.1701 184.16 36.1701C185.045 36.1701 185.922 35.9957 186.74 35.657C187.557 35.3183 188.3 34.8218 188.926 34.196C189.552 33.5701 190.049 32.8271 190.387 32.0094C190.726 31.1916 190.9 30.3152 190.9 29.4301Z" fill="#E85D29"/>
<path d="M292.51 19.9799L292.38 18.4699C292.372 18.3814 292.382 18.2921 292.411 18.2079C292.439 18.1237 292.485 18.0465 292.545 17.9813C292.606 17.9162 292.679 17.8645 292.761 17.8298C292.843 17.7951 292.931 17.7781 293.02 17.7799L297.05 17.8499C297.237 17.8525 297.415 17.9274 297.546 18.0584C297.677 18.1894 297.75 18.366 297.75 18.5499V39.9999C297.75 40.6666 297.417 40.9966 296.75 40.9899L293.49 40.9799C292.837 40.9732 292.514 40.6432 292.52 39.9899L292.54 38.5199C292.539 38.4494 292.518 38.3804 292.479 38.3214C292.44 38.2625 292.385 38.2163 292.321 38.1885C292.257 38.1608 292.187 38.1528 292.119 38.1655C292.051 38.1782 291.989 38.211 291.94 38.2599C280.02 50.0499 265.73 31.1599 276.25 20.4799C280.74 15.9199 287.15 16.1799 291.98 20.2599C292.38 20.5999 292.557 20.5066 292.51 19.9799ZM284.931 36.3752C285.796 36.4069 286.659 36.2558 287.471 35.9306C288.283 35.6053 289.028 35.1122 289.664 34.4795C290.3 33.8468 290.813 33.0868 291.175 32.243C291.538 31.3991 291.742 30.4879 291.776 29.5614C291.81 28.6349 291.673 27.7112 291.374 26.8431C291.074 25.9749 290.617 25.1794 290.03 24.5018C289.442 23.8242 288.735 23.2779 287.949 22.8941C287.163 22.5102 286.314 22.2963 285.449 22.2646C284.584 22.2329 283.721 22.384 282.909 22.7092C282.097 23.0345 281.352 23.5276 280.716 24.1603C280.081 24.793 279.567 25.553 279.205 26.3968C278.843 27.2407 278.639 28.1519 278.605 29.0784C278.571 30.0049 278.707 30.9286 279.007 31.7967C279.306 32.6649 279.763 33.4604 280.351 34.138C280.938 34.8156 281.645 35.3619 282.431 35.7457C283.217 36.1296 284.067 36.3435 284.931 36.3752Z" fill="#E85D29"/>
<path d="M94.2207 38.74C94.2195 38.6561 94.1928 38.5748 94.1442 38.5067C94.0955 38.4386 94.027 38.3868 93.9475 38.3578C93.8681 38.3288 93.7812 38.3239 93.698 38.3439C93.6148 38.3639 93.5392 38.4078 93.4807 38.47C88.5007 43.92 80.1607 42.49 76.4307 36.53C69.3807 25.23 81.1007 11.82 93.4807 19.69C93.9474 19.99 94.1574 19.8633 94.1107 19.31L94.0507 18.51C94.0107 18.0033 94.2407 17.7533 94.7407 17.76L98.9307 17.81C99.096 17.8126 99.2537 17.8791 99.3697 17.9951C99.4856 18.1111 99.5507 18.2673 99.5507 18.43L99.5107 40.24C99.5107 40.7333 99.2607 40.98 98.7607 40.98L94.8907 41C94.4907 41 94.284 40.7967 94.2707 40.39L94.2207 38.74ZM86.907 36.3796C88.6441 36.3978 90.3177 35.6735 91.5598 34.3662C92.8019 33.0589 93.5107 31.2756 93.5303 29.4086C93.5498 27.5416 92.8785 25.7438 91.6641 24.4108C90.4496 23.0777 88.7915 22.3186 87.0544 22.3004C85.3173 22.2822 83.6437 23.0065 82.4016 24.3138C81.1594 25.6211 80.4506 27.4044 80.4311 29.2714C80.4115 31.1384 81.0828 32.9362 82.2973 34.2692C83.5118 35.6023 85.1699 36.3614 86.907 36.3796Z" fill="#E85D29"/>
<path d="M109.95 19.7602L111.4 18.3202C111.539 18.1882 111.702 18.0861 111.88 18.0202C115.1 16.8735 118.187 17.0535 121.14 18.5602C121.854 18.9202 122.027 19.4502 121.66 20.1502L120.03 23.2802C119.657 23.9802 119.14 24.1135 118.48 23.6802C114.43 21.0102 109.92 23.0602 109.85 28.0002C109.797 32.3002 109.737 36.3302 109.67 40.0902C109.664 40.6635 109.374 40.9535 108.8 40.9602L104.44 41.0502C104.36 41.0529 104.28 41.0391 104.205 41.0096C104.13 40.9802 104.061 40.9357 104.003 40.8787C103.945 40.8218 103.899 40.7537 103.868 40.6783C103.836 40.603 103.82 40.522 103.82 40.4402L103.85 18.4502C103.85 18.2645 103.924 18.0865 104.055 17.9552C104.187 17.8239 104.365 17.7502 104.55 17.7502L108.55 17.7702C108.652 17.7715 108.752 17.7929 108.845 17.833C108.938 17.8732 109.022 17.9314 109.092 18.0041C109.162 18.0768 109.216 18.1626 109.252 18.2563C109.288 18.3501 109.304 18.4501 109.3 18.5502L109.26 19.4602C109.256 19.5404 109.276 19.6197 109.319 19.6877C109.361 19.7557 109.423 19.8093 109.498 19.8416C109.572 19.8739 109.655 19.8835 109.736 19.8689C109.816 19.8544 109.891 19.8165 109.95 19.7602Z" fill="#E85D29"/>
<path d="M214.559 20.27C215.309 19.73 215.949 18.87 216.699 18.45C221.479 15.82 227.589 17.67 230.269 22.37C232.489 26.25 231.529 35.6 231.419 40.09C231.406 40.5233 231.186 40.74 230.759 40.74L226.459 40.75C226.274 40.75 226.095 40.6762 225.964 40.5449C225.833 40.4137 225.759 40.2356 225.759 40.05C225.779 36.33 226.589 28.46 224.839 25.28C223.089 22.11 218.819 21.59 216.169 24.1C213.209 26.92 214.189 36.19 214.239 40.04C214.24 40.134 214.223 40.2274 214.188 40.3147C214.153 40.402 214.101 40.4815 214.035 40.5485C213.969 40.6155 213.89 40.6687 213.803 40.705C213.716 40.7413 213.623 40.76 213.529 40.76H209.439C208.892 40.76 208.619 40.4866 208.619 39.94L208.629 18.52C208.629 17.96 208.912 17.6833 209.479 17.69L213.239 17.77C213.752 17.7766 213.962 18.0366 213.869 18.55C213.782 19.0433 213.792 19.53 213.899 20.01C213.992 20.4233 214.212 20.51 214.559 20.27Z" fill="#E85D29"/>
<path d="M162.24 38.1002C158.2 43.4602 149.69 41.7802 146.79 36.5602C144.41 32.2802 145.42 23.4702 145.36 18.4102C145.353 18.1168 145.497 17.9702 145.79 17.9702L150.29 17.9602C150.364 17.9588 150.438 17.9724 150.507 17.9999C150.576 18.0274 150.639 18.0685 150.692 18.1206C150.745 18.1728 150.788 18.2349 150.816 18.3035C150.845 18.3721 150.86 18.4458 150.86 18.5202C150.82 22.7802 149.77 31.8402 153.33 34.8402C155.89 37.0102 159.73 36.3002 161.4 33.3902C163.28 30.0902 162.52 21.9602 162.47 18.2202C162.47 18.1433 162.5 18.0695 162.555 18.0151C162.609 17.9607 162.683 17.9302 162.76 17.9302H167.74C167.822 17.9302 167.901 17.9628 167.959 18.021C168.017 18.0791 168.05 18.158 168.05 18.2402L168 40.0402C168 40.5735 167.733 40.8335 167.2 40.8202L163.74 40.7302C163.26 40.7168 162.997 40.4702 162.95 39.9902L162.77 38.2502C162.723 37.7502 162.547 37.7002 162.24 38.1002Z" fill="#E85D29"/>
<path d="M204.74 17.73H200.02C199.743 17.73 199.52 17.9538 199.52 18.23V40.25C199.52 40.5261 199.743 40.75 200.02 40.75H204.74C205.016 40.75 205.24 40.5261 205.24 40.25V18.23C205.24 17.9538 205.016 17.73 204.74 17.73Z" fill="#E85D29"/>
<path d="M269.491 17.6802H264.551C264.28 17.6802 264.061 17.8996 264.061 18.1702V40.4502C264.061 40.7208 264.28 40.9402 264.551 40.9402H269.491C269.761 40.9402 269.981 40.7208 269.981 40.4502V18.1702C269.981 17.8996 269.761 17.6802 269.491 17.6802Z" fill="#33348C"/>
<path d="M247.99 72.0099L221.29 72.0399C221.144 72.0399 221.004 71.982 220.901 71.8788C220.798 71.7757 220.74 71.6358 220.74 71.4899L220.75 66.7999C220.75 66.6541 220.808 66.5142 220.911 66.411C221.014 66.3079 221.154 66.2499 221.3 66.2499L242.37 66.2299C242.516 66.2299 242.656 66.172 242.759 66.0689C242.862 65.9657 242.92 65.8258 242.92 65.6799L242.83 44.9899C242.83 44.8441 242.888 44.7042 242.991 44.601C243.094 44.4979 243.234 44.4399 243.38 44.4399L269.46 44.4699C269.532 44.4699 269.604 44.4842 269.671 44.5118C269.737 44.5395 269.798 44.58 269.849 44.631C269.9 44.6821 269.941 44.7427 269.968 44.8095C269.996 44.8762 270.01 44.9477 270.01 45.0199L270 49.4499C270 49.5958 269.942 49.7357 269.839 49.8389C269.736 49.942 269.596 49.9999 269.45 49.9999L249.11 50.0899C248.964 50.0899 248.824 50.1479 248.721 50.251C248.618 50.3542 248.56 50.4941 248.56 50.6399L248.54 71.4599C248.54 71.5322 248.526 71.6037 248.498 71.6704C248.471 71.7372 248.43 71.7978 248.379 71.8489C248.328 71.8999 248.267 71.9404 248.201 71.9681C248.134 71.9957 248.062 72.0099 247.99 72.0099Z" fill="#24AD4D"/>
</svg>
