<svg width="300" height="82" viewBox="0 0 300 82" fill="none" xmlns="http://www.w3.org/2000/svg">
<path d="M205.75 11.17C205.75 10.2603 205.389 9.38787 204.745 8.74462C204.102 8.10137 203.23 7.74 202.32 7.74C201.41 7.74 200.538 8.10137 199.895 8.74462C199.251 9.38787 198.89 10.2603 198.89 11.17C198.89 12.0797 199.251 12.9521 199.895 13.5954C200.538 14.2386 201.41 14.6 202.32 14.6C203.23 14.6 204.102 14.2386 204.745 13.5954C205.389 12.9521 205.75 12.0797 205.75 11.17Z" stroke="#F4AE94" stroke-width="2"/>
<path d="M253.89 38.91L254.03 40.3C254.077 40.7667 254.333 41 254.8 41H258.5C259 40.9933 259.25 40.7433 259.25 40.25V8.49C259.25 8.35739 259.196 8.23021 259.101 8.13645C259.005 8.04268 258.875 7.99 258.74 7.99L254.5 7.98C254.362 7.98 254.23 8.03478 254.132 8.1323C254.035 8.22982 253.98 8.36209 253.98 8.5V20.24C253.98 20.2931 253.964 20.345 253.934 20.389C253.904 20.4331 253.862 20.4674 253.813 20.4877C253.764 20.508 253.71 20.5134 253.658 20.5031C253.606 20.4928 253.558 20.4674 253.52 20.43C247.96 14.83 238.9 16.73 235.55 23.57C230.02 34.89 241.63 47.75 253.3 38.66C253.647 38.3867 253.843 38.47 253.89 38.91Z" stroke="#F4AE94" stroke-width="2"/>
<path d="M270.41 11.17C270.41 10.2656 270.051 9.39827 269.411 8.75877C268.772 8.11927 267.904 7.76 267 7.76C266.096 7.76 265.228 8.11927 264.589 8.75877C263.949 9.39827 263.59 10.2656 263.59 11.17C263.59 12.0744 263.949 12.9417 264.589 13.5812C265.228 14.2207 266.096 14.58 267 14.58C267.904 14.58 268.772 14.2207 269.411 13.5812C270.051 12.9417 270.41 12.0744 270.41 11.17Z" stroke="#999AC6" stroke-width="2"/>
<path d="M61.24 23.42C61.4133 26.78 61.5 30.14 61.5 33.5C61.5 42.3 67.05 40.71 73.22 40.98C73.92 41.0133 74.18 40.69 74 40.01L73.24 37.12C73.0533 36.4133 72.5967 36.0533 71.87 36.04L68.41 35.97C67.9361 35.9621 67.4844 35.7676 67.153 35.4287C66.8217 35.0899 66.6373 34.634 66.64 34.16L66.71 23.46C66.7167 23.08 66.91 22.8833 67.29 22.87L71.99 22.76C72.6367 22.7467 72.9633 22.4133 72.97 21.76L73 18.75C73.0067 18.0833 72.6733 17.75 72 17.75H67.62C67.5036 17.7513 67.3881 17.7295 67.2802 17.6859C67.1722 17.6423 67.0741 17.5777 66.9913 17.4958C66.9085 17.414 66.8428 17.3165 66.7979 17.2091C66.7531 17.1017 66.73 16.9864 66.73 16.87L66.71 12.54C66.7033 11.76 66.3133 11.3733 65.54 11.38L62.24 11.4C61.5067 11.4 61.1433 11.77 61.15 12.51L61.22 17.26C61.22 17.3873 61.1694 17.5094 61.0794 17.5994C60.9894 17.6894 60.8673 17.74 60.74 17.74L57.76 17.72C57.08 17.7133 56.7433 18.0533 56.75 18.74L56.76 21.83C56.7667 22.53 57.1233 22.88 57.83 22.88H60.67C61.03 22.88 61.22 23.06 61.24 23.42Z" stroke="#F4AE94" stroke-width="2"/>
<path d="M129.47 23.39C129.69 27.5033 129.813 31.6233 129.84 35.75C129.87 41.8 137.15 41.03 141.49 40.81C142.083 40.7833 142.3 40.4833 142.14 39.91L141.33 37.05C141.15 36.41 140.727 36.0833 140.06 36.07L136.55 36C136.107 35.9921 135.685 35.8096 135.374 35.4916C135.064 35.1736 134.89 34.7457 134.89 34.3L134.87 23.57C134.87 23.3569 134.955 23.1524 135.107 23.0008C135.258 22.8491 135.464 22.7626 135.68 22.76L140.01 22.75C140.77 22.75 141.157 22.3733 141.17 21.62L141.24 18.74C141.243 18.6084 141.219 18.4776 141.169 18.3555C141.12 18.2335 141.046 18.1228 140.953 18.0302C140.859 17.9376 140.748 17.865 140.625 17.8168C140.503 17.7686 140.372 17.7459 140.24 17.75L135.68 17.89C135.587 17.8927 135.495 17.8771 135.408 17.8443C135.322 17.8114 135.243 17.7619 135.176 17.6987C135.109 17.6354 135.055 17.5596 135.018 17.4757C134.981 17.3918 134.961 17.3015 134.96 17.21L134.9 12.43C134.887 11.6233 134.48 11.2467 133.68 11.3L130.44 11.5C129.627 11.5533 129.223 11.99 129.23 12.81L129.28 17.07C129.281 17.1514 129.267 17.2323 129.237 17.3081C129.208 17.3838 129.164 17.4529 129.109 17.5114C129.053 17.5699 128.986 17.6167 128.913 17.649C128.839 17.6814 128.76 17.6987 128.68 17.7L126 17.76C125.193 17.78 124.797 18.1933 124.81 19L124.85 21.68C124.863 22.4133 125.237 22.7867 125.97 22.8L128.93 22.87C129.27 22.8767 129.45 23.05 129.47 23.39Z" stroke="#F4AE94" stroke-width="2"/>
<path d="M18.08 36.17C18.1668 36.1751 18.2514 36.1991 18.328 36.2402C18.4046 36.2812 18.4714 36.3385 18.5237 36.4079C18.576 36.4773 18.6126 36.5573 18.631 36.6423C18.6493 36.7272 18.649 36.8152 18.63 36.9L17.89 40.38C17.8718 40.469 17.874 40.561 17.8965 40.6491C17.919 40.7371 17.9613 40.8189 18.02 40.8883C18.0788 40.9576 18.1525 41.0127 18.2356 41.0494C18.3188 41.0861 18.4092 41.1034 18.5 41.1L22.3 40.98C22.4381 40.975 22.5702 40.9225 22.674 40.8314C22.7778 40.7404 22.8471 40.6162 22.87 40.48L23.56 36.57C23.5833 36.4321 23.654 36.3067 23.7599 36.2154C23.8658 36.1242 24.0002 36.0727 24.14 36.07L27.53 36.01C27.6839 36.0049 27.83 35.9408 27.938 35.8309C28.0459 35.7211 28.1075 35.574 28.11 35.42L28.14 31.68C28.1401 31.5986 28.1237 31.5181 28.0916 31.4432C28.0596 31.3684 28.0127 31.3009 27.9538 31.2448C27.8949 31.1886 27.8251 31.1451 27.7488 31.1168C27.6726 31.0884 27.5913 31.0759 27.51 31.08L25.63 31.2C25.5373 31.2053 25.4447 31.1891 25.3593 31.1525C25.274 31.116 25.1983 31.0602 25.1382 30.9894C25.0781 30.9186 25.0353 30.8349 25.013 30.7448C24.9908 30.6547 24.9897 30.5606 25.01 30.47L26.31 24.72C26.3398 24.586 26.4145 24.4662 26.5219 24.3807C26.6293 24.2952 26.7627 24.249 26.9 24.25L30.15 24.26C30.3091 24.26 30.4618 24.1968 30.5743 24.0843C30.6868 23.9717 30.75 23.8191 30.75 23.66L30.74 20.15C30.74 19.9926 30.6782 19.8415 30.5678 19.7292C30.4575 19.617 30.3074 19.5526 30.15 19.55L28.22 19.52C28.1296 19.5195 28.0405 19.4985 27.9593 19.4587C27.8781 19.4189 27.807 19.3613 27.7512 19.2901C27.6954 19.219 27.6565 19.1361 27.6372 19.0478C27.618 18.9595 27.6189 18.8679 27.64 18.78L28.72 14.51C28.7411 14.4221 28.7421 14.3305 28.7228 14.2422C28.7036 14.1539 28.6646 14.071 28.6088 13.9999C28.553 13.9287 28.4819 13.8711 28.4007 13.8313C28.3195 13.7915 28.2304 13.7705 28.14 13.77L24.15 13.71C24.0127 13.709 23.8793 13.7552 23.7719 13.8407C23.6645 13.9262 23.5898 14.046 23.56 14.18L22.54 19.01C22.5126 19.1442 22.4402 19.265 22.3347 19.3523C22.2292 19.4396 22.097 19.4882 21.96 19.49L18.95 19.53C18.8574 19.5303 18.766 19.5091 18.683 19.4682C18.5999 19.4272 18.5275 19.3676 18.4713 19.294C18.4151 19.2204 18.3768 19.1348 18.3592 19.0439C18.3416 18.953 18.3453 18.8592 18.37 18.77L19.51 14.51C19.5329 14.4214 19.5352 14.3288 19.5168 14.2392C19.4983 14.1495 19.4597 14.0653 19.4037 13.9929C19.3477 13.9206 19.2759 13.862 19.1938 13.8216C19.1117 13.7812 19.0215 13.7601 18.93 13.76L14.86 13.74C14.7185 13.7404 14.5817 13.7908 14.4737 13.8823C14.3657 13.9738 14.2936 14.1005 14.27 14.24L13.48 19C13.4564 19.1395 13.3843 19.2662 13.2763 19.3577C13.1684 19.4492 13.0315 19.4996 12.89 19.5L9.44001 19.51C9.28429 19.5099 9.13463 19.5704 9.02267 19.6786C8.9107 19.7868 8.8452 19.9344 8.84001 20.09L8.74001 23.64C8.73869 23.7188 8.7529 23.7971 8.78184 23.8704C8.81077 23.9437 8.85386 24.0106 8.90865 24.0672C8.96344 24.1239 9.02885 24.1692 9.10115 24.2005C9.17345 24.2319 9.25122 24.2487 9.33001 24.25L11.51 24.27C11.5996 24.272 11.6875 24.294 11.7675 24.3345C11.8474 24.3749 11.9173 24.4327 11.9719 24.5037C12.0266 24.5747 12.0647 24.657 12.0834 24.7446C12.1021 24.8322 12.1009 24.9229 12.08 25.01L10.65 30.7C10.6187 30.8305 10.5446 30.9467 10.4394 31.0301C10.3343 31.1135 10.2042 31.1592 10.07 31.16L6.65001 31.13C6.57038 31.1287 6.49128 31.1432 6.41733 31.1728C6.34338 31.2023 6.27605 31.2463 6.21927 31.3022C6.16249 31.358 6.1174 31.4246 6.08662 31.4981C6.05585 31.5715 6.04 31.6504 6.04001 31.73L5.99001 35.53C5.98869 35.6096 6.00322 35.6887 6.03278 35.7627C6.06234 35.8366 6.10633 35.904 6.16217 35.9607C6.21802 36.0175 6.28461 36.0626 6.35807 36.0934C6.43152 36.1242 6.51037 36.14 6.59001 36.14L8.81001 36.15C8.89936 36.1509 8.98739 36.1717 9.06767 36.2109C9.14795 36.2501 9.21846 36.3068 9.27405 36.3767C9.32963 36.4467 9.36889 36.5282 9.38895 36.6152C9.40901 36.7023 9.40938 36.7928 9.39001 36.88L8.62001 40.29C8.59892 40.3779 8.59796 40.4695 8.61721 40.5578C8.63647 40.6461 8.67544 40.729 8.73122 40.8001C8.78699 40.8713 8.85812 40.9289 8.9393 40.9687C9.02048 41.0085 9.1096 41.0295 9.20001 41.03L12.97 41.01C13.1056 41.0087 13.2367 40.9615 13.342 40.8762C13.4473 40.7908 13.5206 40.6723 13.55 40.54L14.44 36.48C14.4707 36.3408 14.5499 36.217 14.6635 36.1309C14.7771 36.0448 14.9177 36.0019 15.06 36.01L18.08 36.17Z" stroke="#F4AE94" stroke-width="2"/>
<path d="M47.99 32.24C48.2446 32.3534 48.471 32.5216 48.653 32.7327C48.8349 32.9438 48.9679 33.1926 49.0425 33.4611C49.117 33.7297 49.1313 34.0114 49.0841 34.2861C49.037 34.5608 48.9298 34.8216 48.77 35.05C46.62 38.11 40.82 36.23 37.65 34.31C37.0367 33.9367 36.5233 34.0467 36.11 34.64L34.61 36.8C34.1833 37.4067 34.2533 37.95 34.82 38.43C39.68 42.55 50.35 44.25 53.81 37.28C54.77 35.3333 54.9567 33.44 54.37 31.6C52.15 24.68 44.02 28.66 40.95 25.26C40.7215 25.0045 40.5643 24.6933 40.4944 24.3577C40.4245 24.0221 40.4442 23.674 40.5517 23.3485C40.6592 23.0229 40.8506 22.7315 41.1066 22.5036C41.3627 22.2756 41.6743 22.1192 42.01 22.05C44.75 21.49 47.26 21.98 49.54 23.52C50.2067 23.9733 50.79 23.88 51.29 23.24L53.23 20.72C53.71 20.0933 53.6 19.6 52.9 19.24C47.99 16.74 38.48 15.38 35.54 21.38C33.66 25.23 35.89 29.2 39.69 30.58C41.85 31.37 45.37 31.07 47.99 32.24Z" stroke="#F4AE94" stroke-width="2"/>
<path d="M177.09 38.63C182.97 42.91 188.16 42.85 192.66 38.45C198.63 32.61 197.42 21.22 189.43 18.06C184.957 16.2867 181.107 16.8333 177.88 19.7C176.92 20.5533 176.597 20.3567 176.91 19.11C176.957 18.9367 176.917 18.72 176.79 18.46C176.637 18.1467 176.387 17.9867 176.04 17.98L171.72 17.89C171.668 17.8887 171.616 17.8978 171.568 17.9168C171.519 17.9358 171.475 17.9643 171.438 18.0006C171.4 18.037 171.371 18.0804 171.351 18.1284C171.33 18.1764 171.32 18.2279 171.32 18.28L171.38 49.76C171.38 50.3467 171.673 50.64 172.26 50.64H176.09C176.557 50.64 176.79 50.41 176.79 49.95L176.8 38.78C176.8 38.54 176.897 38.49 177.09 38.63Z" stroke="#F4AE94" stroke-width="2"/>
<path d="M291.98 20.26C287.15 16.18 280.74 15.92 276.25 20.48C265.73 31.16 280.02 50.05 291.94 38.26C291.989 38.2111 292.051 38.1783 292.119 38.1656C292.186 38.1529 292.257 38.1609 292.321 38.1886C292.385 38.2164 292.44 38.2626 292.479 38.3215C292.518 38.3805 292.539 38.4495 292.54 38.52L292.52 39.99C292.513 40.6433 292.837 40.9733 293.49 40.98L296.75 40.99C297.417 40.9967 297.75 40.6667 297.75 40V18.55C297.75 18.3661 297.677 18.1895 297.546 18.0585C297.415 17.9275 297.237 17.8526 297.05 17.85L293.02 17.78C292.931 17.7782 292.843 17.7952 292.761 17.8299C292.679 17.8646 292.606 17.9163 292.545 17.9814C292.485 18.0466 292.439 18.1238 292.41 18.208C292.382 18.2922 292.372 18.3815 292.38 18.47L292.51 19.98C292.557 20.5067 292.38 20.6 291.98 20.26Z" stroke="#F4AE94" stroke-width="2"/>
<path d="M94.22 38.74L94.27 40.39C94.2834 40.7967 94.49 41 94.89 41L98.76 40.98C99.26 40.98 99.51 40.7333 99.51 40.24L99.55 18.43C99.55 18.2673 99.485 18.1111 99.369 17.9951C99.253 17.8791 99.0953 17.8126 98.93 17.81L94.74 17.76C94.24 17.7533 94.01 18.0033 94.05 18.51L94.11 19.31C94.1567 19.8633 93.9467 19.99 93.48 19.69C81.1 11.82 69.38 25.23 76.43 36.53C80.16 42.49 88.5 43.92 93.48 38.47C93.5385 38.4078 93.6141 38.3639 93.6973 38.3439C93.7805 38.324 93.8674 38.3288 93.9469 38.3578C94.0264 38.3868 94.0948 38.4386 94.1435 38.5067C94.1922 38.5748 94.2188 38.6561 94.22 38.74Z" stroke="#F4AE94" stroke-width="2"/>
<path d="M109.26 19.46L109.3 18.55C109.304 18.4499 109.288 18.35 109.252 18.2562C109.216 18.1624 109.162 18.0766 109.092 18.0039C109.022 17.9312 108.938 17.873 108.845 17.8329C108.752 17.7927 108.652 17.7713 108.55 17.77L104.55 17.75C104.364 17.75 104.186 17.8237 104.055 17.955C103.924 18.0863 103.85 18.2643 103.85 18.45L103.82 40.44C103.82 40.5218 103.836 40.6028 103.868 40.6782C103.899 40.7535 103.945 40.8217 104.003 40.8786C104.061 40.9355 104.129 40.98 104.204 41.0094C104.279 41.0389 104.36 41.0527 104.44 41.05L108.8 40.96C109.373 40.9533 109.663 40.6633 109.67 40.09C109.737 36.33 109.797 32.3 109.85 28C109.92 23.06 114.43 21.01 118.48 23.68C119.14 24.1133 119.657 23.98 120.03 23.28L121.66 20.15C122.027 19.45 121.853 18.92 121.14 18.56C118.187 17.0533 115.1 16.8733 111.88 18.02C111.702 18.086 111.539 18.188 111.4 18.32L109.95 19.76C109.891 19.8163 109.816 19.8542 109.735 19.8688C109.655 19.8833 109.572 19.8738 109.498 19.8415C109.423 19.8092 109.361 19.7555 109.318 19.6875C109.276 19.6195 109.256 19.5403 109.26 19.46Z" stroke="#F4AE94" stroke-width="2"/>
<path d="M213.9 20.01C213.793 19.53 213.783 19.0433 213.87 18.55C213.963 18.0367 213.753 17.7767 213.24 17.77L209.48 17.69C208.913 17.6833 208.63 17.96 208.63 18.52L208.62 39.94C208.62 40.4867 208.893 40.76 209.44 40.76H213.53C213.624 40.76 213.717 40.7413 213.804 40.705C213.891 40.6687 213.97 40.6155 214.036 40.5485C214.102 40.4815 214.154 40.4021 214.189 40.3148C214.224 40.2275 214.241 40.1341 214.24 40.04C214.19 36.19 213.21 26.92 216.17 24.1C218.82 21.59 223.09 22.11 224.84 25.28C226.59 28.46 225.78 36.33 225.76 40.05C225.76 40.2357 225.834 40.4137 225.965 40.545C226.096 40.6763 226.274 40.75 226.46 40.75L230.76 40.74C231.187 40.74 231.407 40.5233 231.42 40.09C231.53 35.6 232.49 26.25 230.27 22.37C227.59 17.67 221.48 15.82 216.7 18.45C215.95 18.87 215.31 19.73 214.56 20.27C214.213 20.51 213.993 20.4233 213.9 20.01Z" stroke="#F4AE94" stroke-width="2"/>
<path d="M162.77 38.25L162.95 39.99C162.997 40.47 163.26 40.7167 163.74 40.73L167.2 40.82C167.733 40.8333 168 40.5733 168 40.04L168.05 18.24C168.05 18.1578 168.017 18.0789 167.959 18.0208C167.901 17.9627 167.822 17.93 167.74 17.93H162.76C162.683 17.93 162.609 17.9606 162.555 18.0149C162.501 18.0693 162.47 18.1431 162.47 18.22C162.52 21.96 163.28 30.09 161.4 33.39C159.73 36.3 155.89 37.01 153.33 34.84C149.77 31.84 150.82 22.78 150.86 18.52C150.86 18.4456 150.845 18.372 150.816 18.3034C150.788 18.2348 150.746 18.1726 150.692 18.1204C150.639 18.0683 150.576 18.0273 150.507 17.9997C150.438 17.9722 150.364 17.9587 150.29 17.96L145.79 17.97C145.497 17.97 145.353 18.1167 145.36 18.41C145.42 23.47 144.41 32.28 146.79 36.56C149.69 41.78 158.2 43.46 162.24 38.1C162.547 37.7 162.723 37.75 162.77 38.25Z" stroke="#F4AE94" stroke-width="2"/>
<path d="M205.24 18.23C205.24 18.0974 205.187 17.9702 205.094 17.8764C205 17.7827 204.873 17.73 204.74 17.73H200.02C199.887 17.73 199.76 17.7827 199.666 17.8764C199.573 17.9702 199.52 18.0974 199.52 18.23V40.25C199.52 40.3826 199.573 40.5098 199.666 40.6036C199.76 40.6973 199.887 40.75 200.02 40.75H204.74C204.873 40.75 205 40.6973 205.094 40.6036C205.187 40.5098 205.24 40.3826 205.24 40.25V18.23Z" stroke="#F4AE94" stroke-width="2"/>
<path d="M269.98 18.17C269.98 18.04 269.928 17.9154 269.836 17.8235C269.745 17.7316 269.62 17.68 269.49 17.68H264.55C264.42 17.68 264.295 17.7316 264.204 17.8235C264.112 17.9154 264.06 18.04 264.06 18.17V40.45C264.06 40.58 264.112 40.7046 264.204 40.7965C264.295 40.8884 264.42 40.94 264.55 40.94H269.49C269.62 40.94 269.745 40.8884 269.836 40.7965C269.928 40.7046 269.98 40.58 269.98 40.45V18.17Z" stroke="#999AC6" stroke-width="2"/>
<path d="M247.99 72.01C248.062 72.01 248.134 71.9958 248.2 71.9681C248.267 71.9405 248.328 71.9 248.379 71.8489C248.43 71.7978 248.471 71.7372 248.498 71.6705C248.526 71.6037 248.54 71.5322 248.54 71.46L248.56 50.64C248.56 50.4941 248.618 50.3542 248.721 50.2511C248.824 50.1479 248.964 50.09 249.11 50.09L269.45 50C269.596 50 269.736 49.9421 269.839 49.8389C269.942 49.7358 270 49.5959 270 49.45L270.01 45.02C270.01 44.9478 269.996 44.8762 269.968 44.8095C269.941 44.7428 269.9 44.6822 269.849 44.6311C269.798 44.58 269.737 44.5395 269.67 44.5119C269.604 44.4842 269.532 44.47 269.46 44.47L243.38 44.44C243.234 44.44 243.094 44.4979 242.991 44.6011C242.888 44.7042 242.83 44.8441 242.83 44.99L242.92 65.68C242.92 65.8259 242.862 65.9658 242.759 66.0689C242.656 66.172 242.516 66.23 242.37 66.23L221.3 66.25C221.154 66.25 221.014 66.3079 220.911 66.4111C220.808 66.5142 220.75 66.6541 220.75 66.8L220.74 71.49C220.74 71.6359 220.798 71.7758 220.901 71.8789C221.004 71.982 221.144 72.04 221.29 72.04L247.99 72.01Z" stroke="#92D6A6" stroke-width="2"/>
<path d="M246.492 36.3853C248.23 36.449 249.925 35.7679 251.203 34.4917C252.481 33.2156 253.237 31.4489 253.306 29.5804C253.34 28.6552 253.204 27.7328 252.905 26.866C252.607 25.9991 252.153 25.2047 251.568 24.5282C250.983 23.8516 250.28 23.3062 249.497 22.923C248.715 22.5397 247.869 22.3263 247.008 22.2947C245.27 22.231 243.575 22.9121 242.297 24.1883C241.019 25.4644 240.263 27.2311 240.194 29.0996C240.16 30.0248 240.296 30.9472 240.595 31.814C240.893 32.6809 241.347 33.4753 241.932 34.1518C242.517 34.8284 243.22 35.3738 244.003 35.757C244.785 36.1403 245.631 36.3537 246.492 36.3853Z" stroke="#F4AE94" stroke-width="2"/>
<path d="M21.25 24.79C21.2634 24.7247 21.262 24.6572 21.2461 24.5925C21.2302 24.5278 21.2001 24.4674 21.158 24.4157C21.1159 24.3641 21.0628 24.3224 21.0026 24.2937C20.9425 24.2651 20.8767 24.2501 20.81 24.25L17.51 24.22C17.4047 24.2179 17.3021 24.2527 17.2198 24.3185C17.1376 24.3843 17.0811 24.4768 17.06 24.58L15.76 30.7C15.7445 30.7677 15.7449 30.838 15.7611 30.9056C15.7773 30.9731 15.8089 31.0359 15.8535 31.0892C15.898 31.1425 15.9543 31.1847 16.0179 31.2126C16.0815 31.2405 16.1507 31.2533 16.22 31.25L19.5 31.12C19.6005 31.118 19.6974 31.0825 19.7753 31.0191C19.8533 30.9557 19.9077 30.868 19.93 30.77L21.25 24.79Z" stroke="#F4AE94" stroke-width="2"/>
<path d="M190.9 29.43C190.9 27.6424 190.19 25.9281 188.926 24.6641C187.662 23.4001 185.948 22.69 184.16 22.69C182.372 22.69 180.658 23.4001 179.394 24.6641C178.13 25.9281 177.42 27.6424 177.42 29.43C177.42 30.3151 177.594 31.1916 177.933 32.0093C178.272 32.827 178.768 33.57 179.394 34.1959C180.02 34.8218 180.763 35.3182 181.581 35.6569C182.398 35.9957 183.275 36.17 184.16 36.17C185.045 36.17 185.922 35.9957 186.739 35.6569C187.557 35.3182 188.3 34.8218 188.926 34.1959C189.552 33.57 190.048 32.827 190.387 32.0093C190.726 31.1916 190.9 30.3151 190.9 29.43Z" stroke="#F4AE94" stroke-width="2"/>
<path d="M284.931 36.3753C285.796 36.407 286.659 36.2559 287.471 35.9307C288.283 35.6054 289.028 35.1123 289.664 34.4796C290.299 33.8469 290.813 33.0869 291.175 32.2431C291.538 31.3992 291.742 30.488 291.776 29.5615C291.81 28.635 291.673 27.7113 291.373 26.8432C291.074 25.975 290.617 25.1795 290.03 24.5019C289.442 23.8243 288.735 23.278 287.949 22.8942C287.163 22.5103 286.314 22.2964 285.449 22.2647C284.584 22.233 283.721 22.3841 282.909 22.7093C282.097 23.0346 281.352 23.5277 280.716 24.1604C280.081 24.7931 279.567 25.5531 279.205 26.3969C278.842 27.2408 278.638 28.152 278.604 29.0785C278.57 30.005 278.707 30.9287 279.007 31.7968C279.306 32.665 279.763 33.4605 280.35 34.1381C280.938 34.8157 281.645 35.362 282.431 35.7458C283.217 36.1297 284.066 36.3436 284.931 36.3753Z" stroke="#F4AE94" stroke-width="2"/>
<path d="M86.9063 36.3796C88.6434 36.3978 90.317 35.6735 91.5592 34.3662C92.8013 33.0589 93.5101 31.2756 93.5296 29.4086C93.5492 27.5416 92.8779 25.7438 91.6634 24.4108C90.4489 23.0777 88.7908 22.3186 87.0537 22.3004C85.3167 22.2822 83.643 23.0065 82.4009 24.3138C81.1588 25.6211 80.45 27.4044 80.4304 29.2714C80.4109 31.1384 81.0822 32.9362 82.2966 34.2692C83.5111 35.6023 85.1692 36.3614 86.9063 36.3796Z" stroke="#F4AE94" stroke-width="2"/>
<path d="M202.32 14.6C204.214 14.6 205.75 13.0643 205.75 11.17C205.75 9.27566 204.214 7.74 202.32 7.74C200.426 7.74 198.89 9.27566 198.89 11.17C198.89 13.0643 200.426 14.6 202.32 14.6Z" fill="#E85D29"/>
<path d="M253.3 38.66C241.63 47.75 230.02 34.89 235.55 23.57C238.9 16.73 247.96 14.83 253.52 20.43C253.558 20.4674 253.606 20.4928 253.658 20.5031C253.71 20.5134 253.764 20.508 253.813 20.4877C253.862 20.4674 253.904 20.4331 253.934 20.389C253.964 20.345 253.98 20.2931 253.98 20.24V8.5C253.98 8.36209 254.035 8.22982 254.132 8.1323C254.23 8.03478 254.362 7.98 254.5 7.98L258.74 7.99C258.875 7.99 259.005 8.04268 259.101 8.13645C259.196 8.23021 259.25 8.35739 259.25 8.49V40.25C259.25 40.7433 259 40.9933 258.5 41H254.8C254.333 41 254.077 40.7667 254.03 40.3L253.89 38.91C253.843 38.47 253.647 38.3867 253.3 38.66ZM246.492 36.3853C248.23 36.449 249.925 35.7679 251.203 34.4917C252.481 33.2156 253.237 31.4489 253.306 29.5804C253.34 28.6552 253.204 27.7328 252.905 26.866C252.607 25.9991 252.153 25.2047 251.568 24.5282C250.983 23.8516 250.28 23.3062 249.497 22.923C248.715 22.5397 247.869 22.3263 247.008 22.2947C245.27 22.231 243.575 22.9121 242.297 24.1883C241.019 25.4644 240.263 27.2311 240.194 29.0996C240.16 30.0248 240.296 30.9472 240.595 31.814C240.893 32.6809 241.347 33.4753 241.932 34.1518C242.517 34.8284 243.22 35.3738 244.003 35.757C244.785 36.1403 245.631 36.3537 246.492 36.3853Z" fill="#E85D29"/>
<path d="M267 14.58C268.883 14.58 270.41 13.0533 270.41 11.17C270.41 9.28671 268.883 7.76 267 7.76C265.117 7.76 263.59 9.28671 263.59 11.17C263.59 13.0533 265.117 14.58 267 14.58Z" fill="#33348C"/>
<path d="M60.67 22.88H57.83C57.1233 22.88 56.7667 22.53 56.76 21.83L56.75 18.74C56.7433 18.0533 57.08 17.7133 57.76 17.72L60.74 17.74C60.8673 17.74 60.9894 17.6894 61.0794 17.5994C61.1694 17.5094 61.22 17.3873 61.22 17.26L61.15 12.51C61.1433 11.77 61.5067 11.4 62.24 11.4L65.54 11.38C66.3133 11.3733 66.7033 11.76 66.71 12.54L66.73 16.87C66.73 16.9864 66.7531 17.1017 66.7979 17.2091C66.8428 17.3165 66.9085 17.414 66.9913 17.4958C67.0741 17.5777 67.1722 17.6423 67.2802 17.6859C67.3881 17.7295 67.5036 17.7513 67.62 17.75H72C72.6733 17.75 73.0067 18.0833 73 18.75L72.97 21.76C72.9633 22.4133 72.6367 22.7467 71.99 22.76L67.29 22.87C66.91 22.8833 66.7167 23.08 66.71 23.46L66.64 34.16C66.6373 34.634 66.8217 35.0899 67.153 35.4287C67.4844 35.7676 67.9361 35.9621 68.41 35.97L71.87 36.04C72.5967 36.0533 73.0533 36.4133 73.24 37.12L74 40.01C74.18 40.69 73.92 41.0133 73.22 40.98C67.05 40.71 61.5 42.3 61.5 33.5C61.5 30.14 61.4133 26.78 61.24 23.42C61.22 23.06 61.03 22.88 60.67 22.88Z" fill="#E85D29"/>
<path d="M128.93 22.87L125.97 22.8C125.237 22.7867 124.863 22.4133 124.85 21.68L124.81 19C124.797 18.1933 125.193 17.78 126 17.76L128.68 17.7C128.76 17.6987 128.839 17.6814 128.913 17.649C128.986 17.6167 129.053 17.5699 129.108 17.5114C129.164 17.4529 129.208 17.3838 129.237 17.3081C129.267 17.2323 129.281 17.1514 129.28 17.07L129.23 12.81C129.223 11.99 129.627 11.5533 130.44 11.5L133.68 11.3C134.48 11.2467 134.887 11.6233 134.9 12.43L134.96 17.21C134.961 17.3015 134.981 17.3918 135.018 17.4757C135.055 17.5596 135.108 17.6354 135.175 17.6987C135.242 17.7619 135.322 17.8114 135.408 17.8443C135.495 17.8771 135.587 17.8927 135.68 17.89L140.24 17.75C140.372 17.7459 140.503 17.7686 140.625 17.8168C140.748 17.865 140.859 17.9376 140.953 18.0302C141.046 18.1228 141.12 18.2335 141.169 18.3555C141.219 18.4776 141.243 18.6084 141.24 18.74L141.17 21.62C141.157 22.3733 140.77 22.75 140.01 22.75L135.68 22.76C135.464 22.7626 135.258 22.8491 135.107 23.0008C134.955 23.1524 134.87 23.3569 134.87 23.57L134.89 34.3C134.89 34.7457 135.064 35.1736 135.374 35.4916C135.685 35.8096 136.107 35.9921 136.55 36L140.06 36.07C140.727 36.0833 141.15 36.41 141.33 37.05L142.14 39.91C142.3 40.4833 142.083 40.7833 141.49 40.81C137.15 41.03 129.87 41.8 129.84 35.75C129.813 31.6233 129.69 27.5033 129.47 23.39C129.45 23.05 129.27 22.8767 128.93 22.87Z" fill="#E85D29"/>
<path d="M18.08 36.17L15.06 36.01C14.9177 36.0019 14.7771 36.0448 14.6635 36.1309C14.5499 36.217 14.4707 36.3408 14.44 36.48L13.55 40.54C13.5206 40.6723 13.4473 40.7908 13.342 40.8762C13.2367 40.9615 13.1056 41.0087 12.97 41.01L9.20001 41.03C9.1096 41.0295 9.02048 41.0085 8.9393 40.9687C8.85812 40.9289 8.78699 40.8713 8.73122 40.8001C8.67544 40.729 8.63647 40.6461 8.61721 40.5578C8.59796 40.4695 8.59892 40.3779 8.62001 40.29L9.39001 36.88C9.40938 36.7928 9.40901 36.7023 9.38895 36.6152C9.36889 36.5282 9.32963 36.4467 9.27405 36.3767C9.21846 36.3068 9.14795 36.2501 9.06767 36.2109C8.98739 36.1717 8.89936 36.1509 8.81001 36.15L6.59001 36.14C6.51037 36.14 6.43152 36.1242 6.35807 36.0934C6.28461 36.0626 6.21802 36.0175 6.16217 35.9607C6.10633 35.904 6.06234 35.8366 6.03278 35.7627C6.00322 35.6887 5.98869 35.6096 5.99001 35.53L6.04001 31.73C6.04 31.6504 6.05585 31.5715 6.08662 31.4981C6.1174 31.4246 6.16249 31.358 6.21927 31.3022C6.27605 31.2463 6.34338 31.2023 6.41733 31.1728C6.49128 31.1432 6.57038 31.1287 6.65001 31.13L10.07 31.16C10.2042 31.1592 10.3343 31.1135 10.4394 31.0301C10.5446 30.9467 10.6187 30.8305 10.65 30.7L12.08 25.01C12.1009 24.9229 12.1021 24.8322 12.0834 24.7446C12.0647 24.657 12.0266 24.5747 11.9719 24.5037C11.9173 24.4327 11.8474 24.3749 11.7675 24.3345C11.6875 24.294 11.5996 24.272 11.51 24.27L9.33001 24.25C9.25122 24.2487 9.17345 24.2319 9.10115 24.2005C9.02885 24.1692 8.96344 24.1239 8.90865 24.0672C8.85386 24.0106 8.81077 23.9437 8.78184 23.8704C8.7529 23.7971 8.73869 23.7188 8.74001 23.64L8.84001 20.09C8.8452 19.9344 8.9107 19.7868 9.02267 19.6786C9.13463 19.5704 9.28429 19.5099 9.44001 19.51L12.89 19.5C13.0315 19.4996 13.1684 19.4492 13.2763 19.3577C13.3843 19.2662 13.4564 19.1395 13.48 19L14.27 14.24C14.2936 14.1005 14.3657 13.9738 14.4737 13.8823C14.5817 13.7908 14.7185 13.7404 14.86 13.74L18.93 13.76C19.0215 13.7601 19.1117 13.7812 19.1938 13.8216C19.2759 13.862 19.3477 13.9206 19.4037 13.9929C19.4597 14.0653 19.4983 14.1495 19.5168 14.2392C19.5352 14.3288 19.5329 14.4214 19.51 14.51L18.37 18.77C18.3453 18.8592 18.3416 18.953 18.3592 19.0439C18.3768 19.1348 18.4151 19.2204 18.4713 19.294C18.5275 19.3676 18.5999 19.4272 18.683 19.4682C18.766 19.5091 18.8574 19.5303 18.95 19.53L21.96 19.49C22.097 19.4882 22.2292 19.4396 22.3347 19.3523C22.4402 19.265 22.5126 19.1442 22.54 19.01L23.56 14.18C23.5898 14.046 23.6645 13.9262 23.7719 13.8407C23.8793 13.7552 24.0127 13.709 24.15 13.71L28.14 13.77C28.2304 13.7705 28.3195 13.7915 28.4007 13.8313C28.4819 13.8711 28.553 13.9287 28.6088 13.9999C28.6646 14.071 28.7036 14.1539 28.7228 14.2422C28.7421 14.3305 28.7411 14.4221 28.72 14.51L27.64 18.78C27.6189 18.8679 27.618 18.9595 27.6372 19.0478C27.6565 19.1361 27.6954 19.219 27.7512 19.2901C27.807 19.3613 27.8781 19.4189 27.9593 19.4587C28.0405 19.4985 28.1296 19.5195 28.22 19.52L30.15 19.55C30.3074 19.5526 30.4575 19.617 30.5678 19.7292C30.6782 19.8415 30.74 19.9926 30.74 20.15L30.75 23.66C30.75 23.8191 30.6868 23.9717 30.5743 24.0843C30.4618 24.1968 30.3091 24.26 30.15 24.26L26.9 24.25C26.7627 24.249 26.6293 24.2952 26.5219 24.3807C26.4145 24.4662 26.3398 24.586 26.31 24.72L25.01 30.47C24.9897 30.5606 24.9908 30.6547 25.013 30.7448C25.0353 30.8349 25.0781 30.9186 25.1382 30.9894C25.1983 31.0602 25.274 31.116 25.3593 31.1525C25.4447 31.1891 25.5373 31.2053 25.63 31.2L27.51 31.08C27.5913 31.0759 27.6726 31.0884 27.7488 31.1168C27.8251 31.1451 27.8949 31.1886 27.9538 31.2448C28.0127 31.3009 28.0596 31.3684 28.0916 31.4432C28.1237 31.5181 28.1401 31.5986 28.14 31.68L28.11 35.42C28.1075 35.574 28.0459 35.7211 27.938 35.8309C27.83 35.9408 27.6839 36.0049 27.53 36.01L24.14 36.07C24.0002 36.0727 23.8658 36.1242 23.7599 36.2154C23.654 36.3067 23.5833 36.4321 23.56 36.57L22.87 40.48C22.8471 40.6162 22.7778 40.7404 22.674 40.8314C22.5702 40.9225 22.4381 40.975 22.3 40.98L18.5 41.1C18.4092 41.1034 18.3188 41.0861 18.2356 41.0494C18.1525 41.0127 18.0788 40.9576 18.02 40.8883C17.9613 40.8189 17.919 40.7371 17.8965 40.6491C17.874 40.561 17.8718 40.469 17.89 40.38L18.63 36.9C18.649 36.8152 18.6493 36.7272 18.631 36.6423C18.6126 36.5573 18.576 36.4773 18.5237 36.4079C18.4714 36.3385 18.4046 36.2812 18.328 36.2402C18.2514 36.1991 18.1668 36.1751 18.08 36.17ZM21.25 24.79C21.2633 24.7247 21.262 24.6572 21.2461 24.5925C21.2302 24.5278 21.2001 24.4674 21.158 24.4157C21.1159 24.3641 21.0628 24.3224 21.0026 24.2937C20.9425 24.2651 20.8767 24.2501 20.81 24.25L17.51 24.22C17.4047 24.2179 17.302 24.2527 17.2198 24.3185C17.1376 24.3843 17.081 24.4768 17.06 24.58L15.76 30.7C15.7445 30.7677 15.7449 30.838 15.7611 30.9056C15.7773 30.9731 15.8089 31.0359 15.8535 31.0892C15.898 31.1425 15.9543 31.1847 16.0179 31.2126C16.0815 31.2405 16.1506 31.2533 16.22 31.25L19.5 31.12C19.6005 31.118 19.6974 31.0825 19.7753 31.0191C19.8532 30.9557 19.9077 30.868 19.93 30.77L21.25 24.79Z" fill="#E85D29"/>
<path d="M47.99 32.24C45.37 31.07 41.85 31.37 39.69 30.58C35.89 29.2 33.66 25.23 35.54 21.38C38.48 15.38 47.99 16.74 52.9 19.24C53.6 19.6 53.71 20.0933 53.23 20.72L51.29 23.24C50.79 23.88 50.2067 23.9733 49.54 23.52C47.26 21.98 44.75 21.49 42.01 22.05C41.6743 22.1192 41.3627 22.2756 41.1066 22.5036C40.8506 22.7315 40.6592 23.0229 40.5517 23.3485C40.4442 23.674 40.4245 24.0221 40.4944 24.3577C40.5643 24.6933 40.7215 25.0045 40.95 25.26C44.02 28.66 52.15 24.68 54.37 31.6C54.9567 33.44 54.77 35.3333 53.81 37.28C50.35 44.25 39.68 42.55 34.82 38.43C34.2533 37.95 34.1833 37.4067 34.61 36.8L36.11 34.64C36.5233 34.0467 37.0367 33.9367 37.65 34.31C40.82 36.23 46.62 38.11 48.77 35.05C48.9298 34.8216 49.037 34.5608 49.0841 34.2861C49.1313 34.0114 49.117 33.7297 49.0425 33.4611C48.9679 33.1926 48.8349 32.9438 48.653 32.7327C48.471 32.5216 48.2446 32.3534 47.99 32.24Z" fill="#E85D29"/>
<path d="M176.8 38.78L176.79 49.95C176.79 50.41 176.557 50.64 176.09 50.64H172.26C171.673 50.64 171.38 50.3467 171.38 49.76L171.32 18.28C171.32 18.2279 171.33 18.1764 171.351 18.1284C171.371 18.0804 171.4 18.037 171.438 18.0006C171.475 17.9643 171.519 17.9358 171.568 17.9168C171.616 17.8978 171.668 17.8887 171.72 17.89L176.04 17.98C176.387 17.9867 176.637 18.1467 176.79 18.46C176.917 18.72 176.957 18.9367 176.91 19.11C176.597 20.3567 176.92 20.5533 177.88 19.7C181.107 16.8333 184.957 16.2867 189.43 18.06C197.42 21.22 198.63 32.61 192.66 38.45C188.16 42.85 182.97 42.91 177.09 38.63C176.897 38.49 176.8 38.54 176.8 38.78ZM190.9 29.43C190.9 27.6424 190.19 25.9281 188.926 24.6641C187.662 23.4001 185.948 22.69 184.16 22.69C182.372 22.69 180.658 23.4001 179.394 24.6641C178.13 25.9281 177.42 27.6424 177.42 29.43C177.42 30.3151 177.594 31.1916 177.933 32.0093C178.272 32.827 178.768 33.57 179.394 34.1959C180.02 34.8218 180.763 35.3182 181.581 35.6569C182.398 35.9957 183.275 36.17 184.16 36.17C185.045 36.17 185.922 35.9957 186.739 35.6569C187.557 35.3182 188.3 34.8218 188.926 34.1959C189.552 33.57 190.048 32.827 190.387 32.0093C190.726 31.1916 190.9 30.3151 190.9 29.43Z" fill="#E85D29"/>
<path d="M292.51 19.98L292.38 18.47C292.372 18.3815 292.382 18.2922 292.41 18.208C292.439 18.1238 292.485 18.0466 292.545 17.9814C292.606 17.9163 292.679 17.8646 292.761 17.8299C292.843 17.7952 292.931 17.7782 293.02 17.78L297.05 17.85C297.237 17.8526 297.415 17.9275 297.546 18.0585C297.677 18.1895 297.75 18.3661 297.75 18.55V40C297.75 40.6667 297.417 40.9967 296.75 40.99L293.49 40.98C292.837 40.9733 292.513 40.6433 292.52 39.99L292.54 38.52C292.539 38.4495 292.518 38.3805 292.479 38.3215C292.44 38.2626 292.385 38.2164 292.321 38.1886C292.257 38.1609 292.186 38.1529 292.119 38.1656C292.051 38.1783 291.989 38.2111 291.94 38.26C280.02 50.05 265.73 31.16 276.25 20.48C280.74 15.92 287.15 16.18 291.98 20.26C292.38 20.6 292.557 20.5067 292.51 19.98ZM284.931 36.3753C285.796 36.407 286.659 36.2559 287.471 35.9307C288.283 35.6054 289.028 35.1123 289.664 34.4796C290.299 33.8469 290.813 33.0869 291.175 32.2431C291.538 31.3992 291.742 30.488 291.776 29.5615C291.81 28.635 291.673 27.7113 291.373 26.8432C291.074 25.975 290.617 25.1795 290.03 24.5019C289.442 23.8243 288.735 23.278 287.949 22.8942C287.163 22.5103 286.314 22.2964 285.449 22.2647C284.584 22.233 283.721 22.3841 282.909 22.7093C282.097 23.0346 281.352 23.5277 280.716 24.1604C280.081 24.7931 279.567 25.5531 279.205 26.3969C278.842 27.2408 278.638 28.152 278.604 29.0785C278.57 30.005 278.707 30.9287 279.007 31.7968C279.306 32.665 279.763 33.4605 280.35 34.1381C280.938 34.8157 281.645 35.362 282.431 35.7458C283.217 36.1297 284.066 36.3436 284.931 36.3753Z" fill="#E85D29"/>
<path d="M94.22 38.74C94.2188 38.6561 94.1921 38.5748 94.1435 38.5067C94.0948 38.4386 94.0263 38.3868 93.9468 38.3578C93.8674 38.3288 93.7805 38.324 93.6973 38.3439C93.6141 38.3639 93.5385 38.4078 93.48 38.47C88.5 43.92 80.16 42.49 76.43 36.53C69.38 25.23 81.1 11.82 93.48 19.69C93.9467 19.99 94.1567 19.8633 94.11 19.31L94.05 18.51C94.01 18.0033 94.24 17.7533 94.74 17.76L98.93 17.81C99.0953 17.8126 99.253 17.8791 99.369 17.9951C99.4849 18.1111 99.55 18.2673 99.55 18.43L99.51 40.24C99.51 40.7333 99.26 40.98 98.76 40.98L94.89 41C94.49 41 94.2833 40.7967 94.27 40.39L94.22 38.74ZM86.9063 36.3796C88.6434 36.3978 90.317 35.6735 91.5591 34.3662C92.8012 33.0589 93.51 31.2756 93.5296 29.4086C93.5491 27.5416 92.8778 25.7438 91.6634 24.4108C90.4489 23.0777 88.7908 22.3186 87.0537 22.3004C85.3166 22.2822 83.643 23.0065 82.4009 24.3138C81.1587 25.6211 80.4499 27.4044 80.4304 29.2714C80.4108 31.1384 81.0821 32.9362 82.2966 34.2692C83.5111 35.6023 85.1692 36.3614 86.9063 36.3796Z" fill="#E85D29"/>
<path d="M109.95 19.76L111.4 18.32C111.539 18.188 111.702 18.086 111.88 18.02C115.1 16.8733 118.187 17.0533 121.14 18.56C121.853 18.92 122.027 19.45 121.66 20.15L120.03 23.28C119.657 23.98 119.14 24.1133 118.48 23.68C114.43 21.01 109.92 23.06 109.85 28C109.797 32.3 109.737 36.33 109.67 40.09C109.663 40.6633 109.373 40.9533 108.8 40.96L104.44 41.05C104.36 41.0527 104.279 41.0389 104.204 41.0094C104.129 40.98 104.061 40.9355 104.003 40.8786C103.945 40.8217 103.899 40.7535 103.868 40.6782C103.836 40.6028 103.82 40.5218 103.82 40.44L103.85 18.45C103.85 18.2643 103.924 18.0863 104.055 17.955C104.186 17.8237 104.364 17.75 104.55 17.75L108.55 17.77C108.652 17.7713 108.752 17.7927 108.845 17.8329C108.938 17.873 109.022 17.9312 109.092 18.0039C109.162 18.0766 109.216 18.1624 109.252 18.2562C109.288 18.35 109.304 18.4499 109.3 18.55L109.26 19.46C109.256 19.5403 109.276 19.6195 109.318 19.6875C109.361 19.7555 109.423 19.8092 109.498 19.8415C109.572 19.8738 109.655 19.8833 109.735 19.8688C109.816 19.8542 109.891 19.8163 109.95 19.76Z" fill="#E85D29"/>
<path d="M214.56 20.27C215.31 19.73 215.95 18.87 216.7 18.45C221.48 15.82 227.59 17.67 230.27 22.37C232.49 26.25 231.53 35.6 231.42 40.09C231.407 40.5233 231.187 40.74 230.76 40.74L226.46 40.75C226.274 40.75 226.096 40.6763 225.965 40.545C225.834 40.4137 225.76 40.2357 225.76 40.05C225.78 36.33 226.59 28.46 224.84 25.28C223.09 22.11 218.82 21.59 216.17 24.1C213.21 26.92 214.19 36.19 214.24 40.04C214.241 40.1341 214.224 40.2275 214.189 40.3148C214.154 40.4021 214.102 40.4815 214.036 40.5485C213.97 40.6155 213.891 40.6687 213.804 40.705C213.717 40.7413 213.624 40.76 213.53 40.76H209.44C208.893 40.76 208.62 40.4867 208.62 39.94L208.63 18.52C208.63 17.96 208.913 17.6833 209.48 17.69L213.24 17.77C213.753 17.7767 213.963 18.0367 213.87 18.55C213.783 19.0433 213.793 19.53 213.9 20.01C213.993 20.4233 214.213 20.51 214.56 20.27Z" fill="#E85D29"/>
<path d="M162.24 38.1C158.2 43.46 149.69 41.78 146.79 36.56C144.41 32.28 145.42 23.47 145.36 18.41C145.353 18.1167 145.497 17.97 145.79 17.97L150.29 17.96C150.364 17.9587 150.438 17.9722 150.507 17.9997C150.576 18.0273 150.639 18.0683 150.692 18.1204C150.746 18.1726 150.788 18.2348 150.816 18.3034C150.845 18.372 150.86 18.4456 150.86 18.52C150.82 22.78 149.77 31.84 153.33 34.84C155.89 37.01 159.73 36.3 161.4 33.39C163.28 30.09 162.52 21.96 162.47 18.22C162.47 18.1431 162.501 18.0693 162.555 18.0149C162.609 17.9606 162.683 17.93 162.76 17.93H167.74C167.822 17.93 167.901 17.9627 167.959 18.0208C168.017 18.0789 168.05 18.1578 168.05 18.24L168 40.04C168 40.5733 167.733 40.8333 167.2 40.82L163.74 40.73C163.26 40.7167 162.997 40.47 162.95 39.99L162.77 38.25C162.723 37.75 162.547 37.7 162.24 38.1Z" fill="#E85D29"/>
<path d="M204.74 17.73H200.02C199.744 17.73 199.52 17.9539 199.52 18.23V40.25C199.52 40.5261 199.744 40.75 200.02 40.75H204.74C205.016 40.75 205.24 40.5261 205.24 40.25V18.23C205.24 17.9539 205.016 17.73 204.74 17.73Z" fill="#E85D29"/>
<path d="M269.49 17.68H264.55C264.279 17.68 264.06 17.8994 264.06 18.17V40.45C264.06 40.7206 264.279 40.94 264.55 40.94H269.49C269.761 40.94 269.98 40.7206 269.98 40.45V18.17C269.98 17.8994 269.761 17.68 269.49 17.68Z" fill="#33348C"/>
<path d="M247.99 72.01L221.29 72.04C221.144 72.04 221.004 71.9821 220.901 71.8789C220.798 71.7758 220.74 71.6359 220.74 71.49L220.75 66.8C220.75 66.6541 220.808 66.5142 220.911 66.4111C221.014 66.3079 221.154 66.25 221.3 66.25L242.37 66.23C242.516 66.23 242.656 66.1721 242.759 66.0689C242.862 65.9658 242.92 65.8259 242.92 65.68L242.83 44.99C242.83 44.8441 242.888 44.7042 242.991 44.6011C243.094 44.4979 243.234 44.44 243.38 44.44L269.46 44.47C269.532 44.47 269.604 44.4842 269.67 44.5119C269.737 44.5395 269.798 44.58 269.849 44.6311C269.9 44.6822 269.94 44.7428 269.968 44.8095C269.996 44.8763 270.01 44.9478 270.01 45.02L270 49.45C270 49.5959 269.942 49.7358 269.839 49.8389C269.736 49.9421 269.596 50 269.45 50L249.11 50.09C248.964 50.09 248.824 50.1479 248.721 50.2511C248.618 50.3542 248.56 50.4941 248.56 50.64L248.54 71.46C248.54 71.5322 248.526 71.6037 248.498 71.6705C248.47 71.7372 248.43 71.7978 248.379 71.8489C248.328 71.9 248.267 71.9405 248.2 71.9681C248.134 71.9958 248.062 72.01 247.99 72.01Z" fill="#24AD4D"/>
</svg>
